<?xml version="1.0" standalone="no"?><!DOCTYPE svg PUBLIC "-//W3C//DTD SVG 1.1//EN" "http://www.w3.org/Graphics/SVG/1.1/DTD/svg11.dtd"><svg t="1709995003694" class="icon" viewBox="0 0 1024 1024" version="1.1" xmlns="http://www.w3.org/2000/svg" p-id="1941" xmlns:xlink="http://www.w3.org/1999/xlink" width="200" height="200"><path d="M734.4 430.5L682 482.8c-17.1 17.1-45.1 17.1-62.2 0L472.7 335.7l-3.9-69.2 52.3-52.3c17.1-17.1 45.1-17.1 62.2 0l147.1 147.1 4 69.2z" fill="#FFFC9F" p-id="1942"></path><path d="M584.5 583.8c-115.8 0-210-94.2-210-210s94.2-210 210-210 210 94.2 210 210-94.2 210-210 210z m0-400c-104.8 0-190 85.2-190 190s85.2 190 190 190 190-85.2 190-190-85.2-190-190-190zM164.5 721c-5.5 0-10-4.5-10-10s4.5-10 10-10c76.4 0 138.5-85.7 138.5-191 0-5.5 4.5-10 10-10s10 4.5 10 10c0 55.8-16.1 108.4-45.4 148.1-30 40.6-70.2 62.9-113.1 62.9zM292 689.2c-2.4 0-4.7-0.8-6.6-2.5-4.1-3.7-4.5-10-0.9-14.1 16.4-18.5 29.6-42.4 38.1-69 1.7-5.3 7.3-8.2 12.6-6.5 5.3 1.7 8.2 7.3 6.5 12.6-9.4 29.2-24 55.6-42.2 76.2-2 2.1-4.8 3.3-7.5 3.3z" fill="#423851" p-id="1943"></path><path d="M541 721c-42.9 0-83.1-22.3-113-62.9-29.3-39.7-45.4-92.3-45.4-148.1v-79.9c0-5.5 4.5-10 10-10s10 4.5 10 10V510c0 105.3 62.1 191 138.5 191 5.5 0 10 4.5 10 10s-4.6 10-10.1 10z" fill="#423851" p-id="1944"></path><path d="M312 540c-5.5 0-10-4.5-10-10 0-103.3 21.6-191.3 62.6-254.6 22.8-35.3 51.6-62.7 85.4-81.4 36.3-20.1 78.7-30.3 126-30.3 5.5 0 10 4.5 10 10s-4.5 10-10 10c-85.1 0-150.6 34.5-194.6 102.5C342.5 346.3 322 430.5 322 530c0 5.5-4.5 10-10 10zM541 721H164.5c-5.5 0-10-4.5-10-10s4.5-10 10-10H541c5.5 0 10 4.5 10 10s-4.5 10-10 10z" fill="#423851" p-id="1945"></path><path d="M711.4 396.4c-2.6 0-5.1-1-7.1-2.9L557.2 246.4c-13.3-13.3-34.8-13.3-48.1 0l-52.3 52.3c-3.9 3.9-10.2 3.9-14.1 0-3.9-3.9-3.9-10.2 0-14.1l52.3-52.3c21.1-21.1 55.3-21.1 76.4 0l147.1 147.1c3.9 3.9 3.9 10.2 0 14.1-2 1.9-4.6 2.9-7.1 2.9zM468.8 386c-2.6 0-5.1-1-7.1-2.9l-15.2-15.2c-3.9-3.9-3.9-10.2 0-14.1 3.9-3.9 10.2-3.9 14.1 0l15.2 15.2c3.9 3.9 3.9 10.2 0 14.1-1.9 1.9-4.4 2.9-7 2.9zM503.4 420.6c-2.6 0-5.1-1-7.1-2.9l-11.5-11.5c-3.9-3.9-3.9-10.2 0-14.1 3.9-3.9 10.2-3.9 14.1 0l11.5 11.5c3.9 3.9 3.9 10.2 0 14.1-1.9 1.9-4.4 2.9-7 2.9zM631.9 530.8c-13.8 0-27.7-5.3-38.2-15.8l-69.4-69.4c-3.9-3.9-3.9-10.2 0-14.1 3.9-3.9 10.2-3.9 14.1 0l69.4 69.4c13.3 13.3 34.8 13.3 48.1 0l52.3-52.3c3.9-3.9 10.2-3.9 14.1 0 3.9 3.9 3.9 10.2 0 14.1L670 515a53.767 53.767 0 0 1-38.1 15.8z" fill="#423851" p-id="1946"></path><path d="M522 361.9c-2.6 0-5.1-1-7.1-2.9-3.9-3.9-3.9-10.2 0-14.1l119.7-119.7c3.9-3.9 10.2-3.9 14.1 0 3.9 3.9 3.9 10.2 0 14.1L529.1 359c-2 1.9-4.5 2.9-7.1 2.9zM560.1 400c-2.6 0-5.1-1-7.1-2.9-3.9-3.9-3.9-10.2 0-14.1l119.7-119.7c3.9-3.9 10.2-3.9 14.1 0 3.9 3.9 3.9 10.2 0 14.1L567.2 397.1c-2 1.9-4.5 2.9-7.1 2.9zM908.3 425.1c-2.6 0-5.1-1-7.1-2.9l-193-193c-3.9-3.9-3.9-10.2 0-14.1 3.9-3.9 10.2-3.9 14.1 0l193 193c3.9 3.9 3.9 10.2 0 14.1-1.8 2-4.4 2.9-7 2.9zM885 448.5c-2.6 0-5.1-1-7.1-2.9L773.5 341.1c-3.9-3.9-3.9-10.2 0-14.1 3.9-3.9 10.2-3.9 14.1 0l104.5 104.5c3.9 3.9 3.9 10.2 0 14.1-2 1.9-4.6 2.9-7.1 2.9zM598.2 438.1c-2.6 0-5.1-1-7.1-2.9-3.9-3.9-3.9-10.2 0-14.1l119.7-119.7c3.9-3.9 10.2-3.9 14.1 0 3.9 3.9 3.9 10.2 0 14.1L605.3 435.2c-2 1.9-4.5 2.9-7.1 2.9z" fill="#423851" p-id="1947"></path><path d="M866.3 467.1c-2.6 0-5.1-1-7.1-2.9-3.9-3.9-3.9-10.2 0-14.1l59.5-59.5c3.9-3.9 10.2-3.9 14.1 0 3.9 3.9 3.9 10.2 0 14.1l-59.5 59.5c-1.8 1.9-4.4 2.9-7 2.9z" fill="#423851" p-id="1948"></path><path d="M736 712c-22.1 0-40-17.9-40-40s17.9-40 40-40 40 17.9 40 40-17.9 40-40 40z m0-60c-11 0-20 9-20 20s9 20 20 20 20-9 20-20-8.9-20-20-20z" fill="#FFFC9F" p-id="1949"></path><path d="M177.5 324.7h-63c-5.5 0-10-4.5-10-10s4.5-10 10-10h63c5.5 0 10 4.5 10 10s-4.5 10-10 10z" fill="#423851" p-id="1950"></path><path d="M146 356.2c-5.5 0-10-4.5-10-10v-63c0-5.5 4.5-10 10-10s10 4.5 10 10v63c0 5.5-4.5 10-10 10z" fill="#423851" p-id="1951"></path><path d="M497.4 835h-51.1c-4.5 0-8.1-3.6-8.1-8.1s3.6-8.1 8.1-8.1h51.1c4.5 0 8.1 3.6 8.1 8.1s-3.6 8.1-8.1 8.1z" fill="#423851" p-id="1952"></path><path d="M471.8 860.5c-4.5 0-8.1-3.6-8.1-8.1v-51.1c0-4.5 3.6-8.1 8.1-8.1s8.1 3.6 8.1 8.1v51.1c0 4.5-3.6 8.1-8.1 8.1z" fill="#423851" p-id="1953"></path></svg>